<?xml version="1.0" encoding="utf-8"?>
<!-- Generator: Adobe Illustrator 26.0.3, SVG Export Plug-In . SVG Version: 6.00 Build 0)  -->
<svg version="1.0" id="Layer_1" xmlns="http://www.w3.org/2000/svg" xmlns:xlink="http://www.w3.org/1999/xlink" x="0px" y="0px"
	 viewBox="0 0 905 567.7" style="enable-background:new 0 0 905 567.7;" xml:space="preserve">
<style type="text/css">
	.st0{fill:#9ACA3C;}
	.st1{fill:#0093D5;}
	.st2{fill-rule:evenodd;clip-rule:evenodd;fill:#EF4123;}
	.st3{fill-rule:evenodd;clip-rule:evenodd;}
</style>
<path class="st0" d="M264.9,333.7L204.3,401l-74.4-67l18-20c1.7,2.7,4.6,5.6,9.2,8.4c15.4,9.3,37.1,5.6,38.1,4.5
	c0,0,10.3-28.1,10.2-28.1C206,297.5,245.2,284.6,264.9,333.7"/>
<path class="st1" d="M237.2,175.9l95.5,38.6L294.1,310l-0.2-0.1c-1.8-9.9-2.8-19.5-10.4-28.7c-13.1-16.1-34.6-16.7-41.3-18
	c4.4-5,12.8-14.4,14.2-15.7c2.3-2,7,0.1,6.9,0.2c0,0,2.1-6.8-7.2-6.9c0,0-2.1-4.4-10.8-2c-2.9,0.8-19.5,6.3-19.8,6.4
	c-2.1,0.5-4.3,1.2-6.3,2c-1.3-5.1-3-10.3-4.7-15.1L237.2,175.9z"/>
<path class="st2" d="M87,225.3L87,225.3l35.8,72.9l54.7-25.5c1.8-33-32-40-65.5-43.3C104,228.7,95.1,227.9,87,225.3 M110,194.9
	l58.5-28.2l18.1,37.3c-8.9-2.3-19.5-2.9-31.6-2C145.2,202.1,119,203.8,110,194.9"/>
<path class="st3" d="M381.3,329.5v-50.8h-17.4V330c0,13.1-4.9,19.9-15.6,19.9c-8.5,0-13-4.2-16.3-13.1l-17.1,4.6
	c4.4,15.3,16,25.8,33.4,25.8C371,367.2,381.2,352.3,381.3,329.5"/>
<path class="st3" d="M466.3,365.9l-16.4-18.7c4.2-6.8,7.5-14.1,9.8-21.8l-14.1-4.5c-1.8,4.9-3.8,9.8-6.1,14.5l-24-27.4
	c-2.7-3.2-4.6-5.7-4.6-9.5s3.1-5.7,8.2-5.7c6.6,0,13,2.2,18.2,6.2l8.4-12.6c-8.4-5.9-15.3-9.1-26-9.1c-14.7,0-25.9,7.4-25.9,21.6
	c0,7,3,12.6,7.6,17.7l2.2,2.5c-11.1,5.5-17.8,12.8-17.8,25c0,15.7,10.8,23.2,28.6,23.2c10.2,0,18.6-2.9,25.4-8.5l6.6,7.1
	L466.3,365.9z M429.8,347.9c-3.6,2.6-8.1,3.9-13.5,3.9c-8.7,0-13.2-3.6-13.2-9.2c0-5.2,2.7-9.7,9.6-13.3L429.8,347.9z"/>
<path class="st3" d="M545,365.9l-32-57.1l25.5-30.1h-21l-24.4,29.8c-2.4,2.9-5.6,6.9-6.9,8.8c0.1-2.7,0.2-10.6,0.2-13.8v-24.8H469
	v87.2h17.5v-25.7l14-16.5l23.6,42.1H545z"/>
<path class="st3" d="M641.2,340.1c0-14.1-8.7-19.7-16.7-21.8c7.3-2.6,12.6-8.2,12.6-17.8c0-15-9.8-21.8-23.7-21.8h-31.9v87.2h31.3
	C631.1,365.9,641.2,357.2,641.2,340.1 M627.3,300.9c0,7.6-4.2,13.8-15.1,13.8h-21v-27.2H613C622.7,287.5,627.3,292.8,627.3,300.9
	 M631.4,340.6c0,10-5,16.4-18.1,16.4h-22.2v-33.6h21.7C624.2,323.4,631.4,329.6,631.4,340.6"/>
<path class="st3" d="M697.6,365.9v-45.6c0-15.2-8.8-21.2-22.9-21.2c-7.6-0.1-15.2,1.7-21.9,5.2l3.5,7.6c5.4-3.3,11.5-5,17.8-5
	c9.6,0,14.2,4.7,14.2,14.5v7.7c-5.1-2.5-10.7-3.8-16.3-3.7c-13,0-25,6.2-25,20.9c0,15.8,10.7,20.9,20.9,20.9
	c9.3,0,15.8-4.4,20.4-9.3v8L697.6,365.9z M688.2,349.8c-4.3,6.2-11.3,9.8-18.8,9.8c-8,0-13.3-4.2-13.3-14c0-8.2,5.7-12.8,15.3-12.8
	c8,0,12.6,1.4,16.8,3.7V349.8z"/>
<path class="st3" d="M759.5,365.9V326c0-18.8-9.1-26.9-22.9-26.9c-7.2-0.2-14,3.3-18.1,9.3v-8h-9.3v65.4h9.3v-38.2
	c0-14.3,7.1-20.4,16.2-20.4c10.5,0,15.5,6.4,15.5,20.4v38.2H759.5z"/>
<polygon class="st3" points="818,365.9 797.3,323.6 814.5,300.5 804,300.5 782.6,330.9 780,334.8 780,331.5 780,275 770.7,280.3 
	770.7,365.9 780,365.9 780,347 791.3,331.5 807.9,365.9 "/>
</svg>
